<svg xmlns="http://www.w3.org/2000/svg" viewBox="-60.774 -50.12 440.304 440.202">
  <ellipse style="fill: rgb(255, 255, 255);" cx="159.284" cy="170.297" rx="220" ry="220"/>
  <path style="stroke: rgb(0, 0, 0); stroke-width: 32px; fill: none;" d="M 160 20 L 35 90 L 160 160 L 285 90 L 160 20 Z"/>
  <path d="M 163.768 207.752 L 164.195 340.606 L 230.644 303.742 L 230.578 275.583 L 191.817 297.095 L 191.946 270.905 L 208.735 262.225 L 208.713 239.072 L 192.101 247.728 L 191.874 223.587 L 230.186 202.214 L 230.555 170.35 L 163.768 207.752 Z"/>
  <path d="M 318.249 255.236 L 317.727 121.969 L 288.945 138.009 L 277.71 175.461 L 261.558 153.175 L 238.697 165.786 L 241.269 297.88 L 265.7 284.273 L 264.289 215.722 L 281.379 230.003 L 295.5 207.295 L 295.5 267.781 L 318.249 255.236 Z"/>
  <path d="M 2.721 121.906 L 77.486 163.912 L 78.193 195.957 L 48.315 179.243 L 47.333 252.539 L 71.943 266.297 L 71.881 294.421 L 1.802 255.144 L 1.788 227.021 L 21.539 237.96 L 23.104 165.194 L 2.754 153.74 L 2.721 121.906 Z"/>
  <path d="M 88.455 170.059 L 154.118 207.312 L 154.777 238.897 L 131.334 225.733 L 132.09 328.214 L 106.214 313.714 L 106.524 212.056 L 88.516 201.707 L 88.455 170.059 Z"/>
</svg>